<svg id="svg" version="1.1" xmlns="http://www.w3.org/2000/svg" xmlns:xlink="http://www.w3.org/1999/xlink" width="400" height="400" viewBox="0, 0, 400,400"><g id="svgg"><path id="path0" d="M91.670 201.344 C 91.746 212.320,91.759 212.568,92.331 213.985 C 93.974 218.051,97.453 219.826,103.775 219.826 C 109.999 219.826,113.259 218.242,115.086 214.331 L 115.803 212.796 115.879 201.472 L 115.956 190.147 112.243 190.147 L 108.531 190.147 108.456 200.448 C 108.374 211.811,108.387 211.720,106.677 212.994 C 105.576 213.815,102.803 213.888,101.344 213.134 C 99.178 212.017,99.180 212.027,99.091 200.320 L 99.013 190.147 95.303 190.147 L 91.594 190.147 91.670 201.344 M119.514 204.728 L 119.514 219.322 123.349 219.322 L 127.184 219.322 127.252 211.003 L 127.319 202.685 132.182 210.992 L 137.044 219.299 140.819 219.310 L 144.594 219.322 144.594 204.734 L 144.594 190.147 140.883 190.147 L 137.172 190.147 137.172 198.645 L 137.172 207.143 132.212 198.709 L 127.252 190.275 123.383 190.204 L 119.514 190.134 119.514 204.728 M148.433 204.734 L 148.433 219.322 152.143 219.322 L 155.854 219.322 155.854 204.734 L 155.854 190.147 152.143 190.147 L 148.433 190.147 148.433 204.734 " stroke="none" fill="#fcfcfc" fill-rule="evenodd"></path><path id="path1" d="M146.769 173.416 C 144.095 174.887,141.691 176.213,141.428 176.363 C 140.965 176.625,151.108 182.470,152.026 182.470 C 152.196 182.470,154.142 181.491,156.351 180.294 C 158.561 179.098,160.447 178.119,160.542 178.119 C 160.638 178.119,160.717 179.559,160.717 181.318 L 160.717 184.517 161.875 184.517 L 163.033 184.517 162.962 180.486 L 162.892 176.456 157.646 173.596 C 154.760 172.024,152.226 170.738,152.015 170.739 C 151.804 170.740,149.443 171.945,146.769 173.416 M145.106 182.579 L 145.106 184.732 148.483 186.544 C 152.532 188.715,151.572 188.715,155.581 186.545 L 158.925 184.734 158.925 182.592 L 158.925 180.450 156.814 181.600 C 155.653 182.233,154.099 183.056,153.361 183.430 L 152.020 184.109 150.930 183.559 C 150.331 183.256,148.775 182.427,147.473 181.717 L 145.106 180.426 145.106 182.579 M247.217 206.270 L 247.217 218.810 249.392 218.810 L 251.567 218.810 251.567 206.270 L 251.567 193.730 249.392 193.730 L 247.217 193.730 247.217 206.270 M205.193 199.869 C 204.071 200.207,202.934 201.149,202.145 202.392 L 201.408 203.555 201.408 201.842 L 201.408 200.128 199.360 200.128 L 197.313 200.128 197.313 209.469 L 197.313 218.810 199.616 218.810 L 201.919 218.810 201.919 213.482 C 201.919 206.474,202.924 204.223,206.052 204.223 L 207.038 204.223 207.038 201.919 C 207.038 199.379,206.991 199.327,205.193 199.869 M182.394 200.241 C 177.851 201.862,175.626 207.662,177.375 213.325 C 179.633 220.634,191.427 220.783,193.583 213.530 C 193.735 213.018,193.629 212.975,191.816 212.805 L 189.886 212.624 188.779 213.847 C 186.160 216.739,181.446 214.960,181.446 211.078 L 181.446 210.109 187.753 210.109 L 194.060 210.109 193.917 208.253 C 193.430 201.904,188.108 198.203,182.394 200.241 M212.156 200.394 C 209.846 201.464,208.743 203.156,208.741 205.630 C 208.740 208.923,210.677 210.578,215.483 211.389 C 218.735 211.937,219.786 212.573,219.476 213.805 C 218.980 215.783,213.923 215.773,212.479 213.790 L 211.981 213.106 209.891 213.445 C 207.569 213.822,207.536 213.879,208.617 215.664 C 209.901 217.786,212.266 218.810,215.883 218.810 C 221.378 218.810,224.082 216.651,223.890 212.417 C 223.735 209.012,222.593 208.065,217.274 206.928 C 213.463 206.113,212.862 205.796,212.973 204.661 C 213.175 202.583,219.066 202.759,219.066 204.843 C 219.066 205.091,219.519 205.075,221.115 204.771 C 223.436 204.328,223.478 204.231,222.178 202.317 C 220.648 200.065,215.147 199.009,212.156 200.394 M230.778 200.308 C 229.228 200.825,227.573 202.242,226.970 203.569 C 226.187 205.293,226.252 205.389,228.399 205.661 L 230.310 205.903 230.465 205.198 C 231.200 201.850,237.807 202.172,238.190 205.574 L 238.320 206.730 235.795 206.907 C 228.638 207.411,225.821 209.337,226.023 213.590 C 226.274 218.860,233.564 220.946,237.289 216.814 L 238.238 215.761 238.538 217.286 L 238.838 218.810 241.010 218.810 C 243.149 218.810,243.179 218.801,242.989 218.234 C 242.883 217.917,242.720 214.491,242.627 210.621 C 242.440 202.820,242.400 202.627,240.682 201.211 C 239.000 199.824,233.682 199.339,230.778 200.308 M159.451 200.448 C 159.458 200.624,160.872 204.798,162.593 209.725 L 165.721 218.682 167.532 218.756 L 169.344 218.831 172.456 209.671 C 174.167 204.634,175.566 200.425,175.564 200.320 C 175.562 200.214,174.781 200.128,173.828 200.128 L 172.097 200.128 170.082 206.192 L 168.066 212.256 166.001 206.192 L 163.935 200.128 161.686 200.128 C 160.050 200.128,159.441 200.215,159.451 200.448 M187.800 203.829 C 188.661 204.608,189.379 206.051,189.379 207.003 C 189.379 207.207,188.199 207.294,185.413 207.294 C 180.977 207.294,181.005 207.308,181.792 205.426 C 182.847 202.901,185.880 202.095,187.800 203.829 M238.260 210.694 C 238.260 214.742,232.327 217.190,230.721 213.806 C 229.659 211.567,232.306 209.658,236.532 209.615 L 238.260 209.597 238.260 210.694 " stroke="none" fill="#040404" fill-rule="evenodd"></path><path id="path2" d="" stroke="none" fill="#bc10080" fill-rule="evenodd"></path><path id="path3" d="" stroke="none" fill="#bc10080" fill-rule="evenodd"></path><path id="path4" d="" stroke="none" fill="#bc10080" fill-rule="evenodd"></path></g></svg>